<?xml version="1.0" encoding="UTF-8" standalone="no"?>
<!-- Created with Inkscape (http://www.inkscape.org/) -->

<svg
   width="69.999863mm"
   height="50.00005mm"
   viewBox="0 0 248.03101 177.16553"
   id="svg2"
   version="1.1"
   inkscape:version="1.2.2 (b0a8486541, 2022-12-01)"
   sodipodi:docname="label.svg"
   xmlns:inkscape="http://www.inkscape.org/namespaces/inkscape"
   xmlns:sodipodi="http://sodipodi.sourceforge.net/DTD/sodipodi-0.dtd"
   xmlns:xlink="http://www.w3.org/1999/xlink"
   xmlns="http://www.w3.org/2000/svg"
   xmlns:svg="http://www.w3.org/2000/svg"
   xmlns:rdf="http://www.w3.org/1999/02/22-rdf-syntax-ns#"
   xmlns:cc="http://creativecommons.org/ns#"
   xmlns:dc="http://purl.org/dc/elements/1.1/">
  <defs
     id="defs4">
    <linearGradient
       inkscape:collect="always"
       id="linearGradient8211">
      <stop
         style="stop-color:#ffffff;stop-opacity:0"
         offset="0"
         id="stop8207" />
      <stop
         id="stop8217"
         offset="0.25"
         style="stop-color:#ffffff;stop-opacity:1" />
      <stop
         style="stop-color:#ffffff;stop-opacity:1"
         offset="0.75"
         id="stop8219" />
      <stop
         style="stop-color:#ffffff;stop-opacity:0;"
         offset="1"
         id="stop8209" />
    </linearGradient>
    <linearGradient
       inkscape:collect="always"
       id="linearGradient7895">
      <stop
         style="stop-color:#000000;stop-opacity:1"
         offset="0"
         id="stop7897" />
      <stop
         style="stop-color:#000000;stop-opacity:0"
         offset="1"
         id="stop7899" />
    </linearGradient>
    <linearGradient
       inkscape:collect="always"
       xlink:href="#linearGradient7895"
       id="linearGradient7903"
       x1="820.93823"
       y1="941.31171"
       x2="849.73749"
       y2="941.31171"
       gradientUnits="userSpaceOnUse"
       gradientTransform="matrix(0.74422319,0,0,17.740671,185.27728,-17237.136)" />
    <linearGradient
       inkscape:collect="always"
       xlink:href="#linearGradient8211"
       id="linearGradient8213"
       x1="509.28635"
       y1="870.82159"
       x2="565.97949"
       y2="870.82159"
       gradientUnits="userSpaceOnUse"
       gradientTransform="rotate(90,537.63291,870.82158)" />
  </defs>
  <sodipodi:namedview
     id="base"
     pagecolor="#ffffff"
     bordercolor="#666666"
     borderopacity="1.0"
     inkscape:pageopacity="0.0"
     inkscape:pageshadow="2"
     inkscape:zoom="2.1378312"
     inkscape:cx="175.17753"
     inkscape:cy="152.02323"
     inkscape:document-units="px"
     inkscape:current-layer="layer1"
     showgrid="false"
     fit-margin-top="0"
     fit-margin-left="0"
     fit-margin-right="0"
     fit-margin-bottom="0"
     showguides="true"
     inkscape:window-width="2560"
     inkscape:window-height="1011"
     inkscape:window-x="0"
     inkscape:window-y="0"
     inkscape:window-maximized="1"
     inkscape:showpageshadow="2"
     inkscape:pagecheckerboard="0"
     inkscape:deskcolor="#d1d1d1" />
  <metadata
     id="metadata7">
    <rdf:RDF>
      <cc:Work
         rdf:about="">
        <dc:format>image/svg+xml</dc:format>
        <dc:type
           rdf:resource="http://purl.org/dc/dcmitype/StillImage" />
        <dc:title />
      </cc:Work>
    </rdf:RDF>
  </metadata>
  <g
     inkscape:label="Camada 1"
     inkscape:groupmode="layer"
     id="layer1"
     transform="translate(-413.61741,-782.23882)">
    <rect
       style="font-variation-settings:'wght' 634;fill:#888a85;stroke-width:7.08662;stroke-linecap:square;stop-color:#000000"
       id="rect5760"
       width="240.57001"
       height="171.81"
       x="417.3479"
       y="784.91656" />
    <image
       width="236.73"
       height="88.77375"
       preserveAspectRatio="none"
       xlink:href="../van_gogh/van_gogh.png"
       id="image3772"
       x="419.26791"
       y="826.43469"
       style="stroke-width:1.35175" />
    <path
       style="opacity:1;vector-effect:none;fill:#eeeeec;fill-opacity:1;stroke:none;stroke-width:0.47244093;stroke-miterlimit:4;stroke-dasharray:none;stroke-opacity:1"
       d="M -529.7207,-71.599609 V 117.37695 h 264.5664 V -71.599609 Z m 17.00586,7.558593 h 230.55273 c 5.21875,-2.21e-4 9.44944,4.230468 9.44922,9.449219 V 87.138672 h -143.62305 c -8.34954,6.93e-4 -15.11773,6.769651 -15.11718,15.119138 v 7.5586 h -81.26172 c -5.21799,-8.6e-4 -9.44749,-4.23123 -9.44727,-9.44922 V -54.591797 c -2.2e-4,-5.21799 4.22928,-9.448363 9.44727,-9.449219 z"
       id="path4273"
       inkscape:connector-curvature="0"
       sodipodi:nodetypes="cccccccccccccccc"
       transform="matrix(0.9375,0,0,0.9375,910.23057,849.36345)" />
    <path
       inkscape:export-ydpi="361.25"
       inkscape:export-xdpi="361.25"
       inkscape:export-filename="/tmp/flappybird_for_msx.png"
       inkscape:connector-curvature="0"
       style="opacity:1;vector-effect:none;fill:#888a85;fill-opacity:1;stroke:none;stroke-width:3.74999952;stroke-linecap:square;stroke-linejoin:miter;stroke-miterlimit:4;stroke-dasharray:none;stroke-dashoffset:0;stroke-opacity:1"
       d="m 574.58998,934.30325 v 9.04969 9.04875 h 1.80982 v -18.09844 z m 2.37539,0 v 7.11469 c 0.66256,-1.04813 1.81483,-1.68281 3.05408,-1.68469 1.99909,0 3.61967,1.62 3.61967,3.61969 v 9.04875 h 1.80983 v -9.04875 c 0,-2.99906 -2.43086,-5.43 -5.4295,-5.43 -0.41916,0 -0.8367,0.0562 -1.24425,0.15094 v -3.77063 z m 54.97357,0 v 18.09844 h 1.80985 v -18.09844 z m 2.37542,0 v 9.95438 h 1.80983 l 4.29833,-7.23938 h -1.80982 l -2.48851,4.19156 v -6.90656 z m 6.67374,2.715 -4.29834,7.23938 h 0.67869 c 1.99907,0 3.61965,1.62093 3.61965,3.61968 0,1.18688 0.96221,2.14969 2.14921,2.14969 h 6.89994 c 1.187,0 2.14919,-0.96281 2.14919,-2.14969 v -0.28312 c 0,-1.18688 -0.96219,-2.14875 -2.14919,-2.14875 h -1.80983 c -1.49929,0 -2.71473,-1.21594 -2.71473,-2.715 v -0.28219 c 0,-1.5 1.21544,-2.715 2.71473,-2.715 h 6.33439 v -1.81031 h -6.33439 c -2.49887,0 -4.52455,2.02594 -4.52455,4.52531 v 0.28219 c 0,2.49937 2.02568,4.52437 4.52455,4.52437 h 1.80983 c 0.18742,0 0.33937,0.15282 0.33937,0.33938 v 0.28312 c 0,0.1875 -0.15195,0.33938 -0.33937,0.33938 h -6.89994 c -0.18744,0 -0.33937,-0.15188 -0.33937,-0.33938 0,-2.23312 -1.36795,-4.23843 -3.44691,-5.05406 l 3.44691,-5.805 z m -120.93417,0.90469 a 7.2243028,7.2393197 0 0 0 -7.2244,7.23937 7.2243028,7.2393197 0 0 0 7.2244,7.23938 7.2243028,7.2393197 0 0 0 5.10507,-2.12344 l -1.27631,-1.27875 a 5.418227,5.4294914 0 0 1 -3.82876,1.59281 5.418227,5.4294914 0 0 1 -5.41832,-5.43 5.418227,5.4294914 0 0 1 5.41832,-5.42906 5.418227,5.4294914 0 0 1 3.82876,1.59281 l 1.27631,-1.27968 a 7.2243028,7.2393197 0 0 0 -5.10507,-2.12344 z m 11.43946,0 a 5.4294895,5.4294895 0 0 0 -5.42949,5.43 v 9.04875 h 1.80983 v -9.04875 a 3.6196596,3.6196596 0 0 1 3.61966,-3.61969 3.6196596,3.6196596 0 0 1 3.61967,3.61969 h 1.80983 a 5.4294895,5.4294895 0 0 0 -5.4295,-5.43 z m 6.33441,0 v 9.04969 a 5.4294895,5.4294895 0 0 0 5.4295,5.42906 5.4294895,5.4294895 0 0 0 5.42949,-5.42906 v -9.04969 h -1.80984 v 9.04969 a 3.6196596,3.6196596 0 0 1 -3.61965,3.61968 3.6196596,3.6196596 0 0 1 -3.61968,-3.61968 v -9.04969 z m 2.37541,0 v 9.04969 a 3.0540878,3.0540878 0 0 0 3.05409,3.05437 3.0540878,3.0540878 0 0 0 3.05408,-3.05437 v -9.04969 h -1.80983 v 9.04969 a 1.2442581,1.2442581 0 0 1 -1.24425,1.24406 1.2442581,1.2442581 0 0 1 -1.24427,-1.24406 v -9.04969 z m 14.81797,0 a 5.4294895,5.4294895 0 0 0 -5.42949,5.43 v 9.04875 h 1.80983 v -9.04875 a 3.6196596,3.6196596 0 0 1 3.61966,-3.61969 3.6196596,3.6196596 0 0 1 3.61967,3.61969 v 9.04875 h 1.80983 v -9.04875 a 5.4294895,5.4294895 0 0 0 -5.4295,-5.43 z m 13.55881,0 a 7.2243028,7.2393197 0 0 0 -7.2244,7.23937 7.2243028,7.2393197 0 0 0 7.2244,7.23938 7.2243028,7.2393197 0 0 0 5.10507,-2.12344 l -1.2763,-1.27875 a 5.418227,5.4294914 0 0 1 -3.82877,1.59281 5.418227,5.4294914 0 0 1 -5.41833,-5.43 5.418227,5.4294914 0 0 1 5.41833,-5.42906 5.418227,5.4294914 0 0 1 3.82877,1.59281 l 1.2763,-1.27968 a 7.2243028,7.2393197 0 0 0 -5.10507,-2.12344 z m 17.77388,0 v 9.04969 a 5.4294891,5.4294891 0 0 0 5.42948,5.42906 5.4294891,5.4294891 0 0 0 3.34041,-1.15125 5.4294891,5.4294891 0 0 0 3.33334,1.15125 5.4294891,5.4294891 0 0 0 5.42949,-5.42906 v -9.04969 h -1.80983 v 9.04969 a 3.6196591,3.6196591 0 0 1 -3.61966,3.61968 3.6196591,3.6196591 0 0 1 -3.33532,-2.22281 3.6196591,3.6196591 0 0 1 -3.33843,2.22281 3.6196591,3.6196591 0 0 1 -3.61966,-3.61968 v -9.04969 z m 2.3754,0 v 9.04969 a 3.0540878,3.0540878 0 0 0 3.05408,3.05437 3.0540878,3.0540878 0 0 0 3.0541,-3.05437 v -9.04969 h -1.80985 v 9.04969 a 1.2442581,1.2442581 0 0 1 -1.24425,1.24406 1.2442581,1.2442581 0 0 1 -1.24426,-1.24406 v -9.04969 z m 6.67375,0 v 9.04969 a 3.0540878,3.0540878 0 0 0 3.05408,3.05437 3.0540878,3.0540878 0 0 0 3.05409,-3.05437 v -9.04969 h -1.80983 v 9.04969 a 1.2442581,1.2442581 0 0 1 -1.24426,1.24406 1.2442581,1.2442581 0 0 1 -1.24425,-1.24406 v -9.04969 z m 16.62781,0 a 7.239319,7.2393197 0 0 0 -7.23933,7.23937 7.239319,7.2393197 0 0 0 7.23933,7.23938 7.239319,7.2393197 0 0 0 7.23932,-7.23938 7.239319,7.2393197 0 0 0 -7.23932,-7.23937 z m 13.57372,0 a 5.4294895,5.4294895 0 0 0 -5.42949,5.43 v 9.04875 h 1.80984 v -9.04875 a 3.6196596,3.6196596 0 0 1 3.61965,-3.61969 3.6196596,3.6196596 0 0 1 3.61965,3.61969 h 1.80983 a 5.4294895,5.4294895 0 0 0 -5.42948,-5.43 z m -13.57372,1.81031 a 5.4294895,5.4294914 0 0 1 5.42949,5.42906 5.4294895,5.4294914 0 0 1 -5.42949,5.43 5.4294895,5.4294914 0 0 1 -5.4295,-5.43 5.4294895,5.4294914 0 0 1 5.4295,-5.42906 z m -91.9769,0.56531 a 4.8538288,4.8639196 0 0 0 -4.85386,4.86375 4.8538288,4.8639196 0 0 0 4.85386,4.86469 4.8538288,4.8639196 0 0 0 3.42999,-1.42687 l -1.27628,-1.27969 a 3.0477526,3.0540878 0 0 1 -2.15371,0.89625 3.0477526,3.0540878 0 0 1 -3.04778,-3.05438 3.0477526,3.0540878 0 0 1 3.04778,-3.05343 3.0477526,3.0540878 0 0 1 2.15371,0.89531 l 1.27628,-1.27875 a 4.8538288,4.8639196 0 0 0 -3.42999,-1.42688 z m 11.43946,0 a 3.0540878,3.0540878 0 0 0 -3.05408,3.05438 v 9.04875 h 1.80982 v -9.04875 a 1.2442581,1.2442581 0 0 1 1.24426,-1.24406 1.2442581,1.2442581 0 0 1 1.24427,1.24406 h 1.80983 a 3.0540878,3.0540878 0 0 0 -3.0541,-3.05438 z m 23.52779,0 a 3.0540878,3.0540878 0 0 0 -3.05408,3.05438 v 9.04875 h 1.80982 v -9.04875 a 1.2442581,1.2442581 0 0 1 1.24426,-1.24406 1.2442581,1.2442581 0 0 1 1.24427,1.24406 v 9.04875 h 1.80983 v -9.04875 a 3.0540878,3.0540878 0 0 0 -3.0541,-3.05438 z m 13.55882,0 a 4.8538288,4.8639196 0 0 0 -4.85388,4.86375 4.8538288,4.8639196 0 0 0 4.85388,4.86469 4.8538288,4.8639196 0 0 0 3.42999,-1.42687 l -1.27629,-1.27969 a 3.0477526,3.0540878 0 0 1 -2.1537,0.89625 3.0477526,3.0540878 0 0 1 -3.0478,-3.05438 3.0477526,3.0540878 0 0 1 3.0478,-3.05343 3.0477526,3.0540878 0 0 1 2.1537,0.89531 l 1.27629,-1.27875 A 4.8538288,4.8639196 0 0 0 568.58,940.29856 Z m 11.43946,0 c -1.68672,0 -3.05408,1.36782 -3.05408,3.05438 v 9.04875 h 1.80982 v -9.04875 c 10e-6,-0.68719 0.55709,-1.24406 1.24426,-1.24406 0.68718,0 1.24425,0.55687 1.24425,1.24406 v 9.04875 h 1.80985 v -9.04875 c 0,-1.68656 -1.36737,-3.05438 -3.0541,-3.05438 z m 32.01137,0 a 4.8639177,4.8639196 0 0 0 -4.86393,4.86375 4.8639177,4.8639196 0 0 0 4.86393,4.86469 4.8639177,4.8639196 0 0 0 4.86392,-4.86469 4.8639177,4.8639196 0 0 0 -4.86392,-4.86375 z m 13.57372,0 a 3.0540878,3.0540878 0 0 0 -3.05409,3.05438 v 9.04875 h 1.80984 v -9.04875 a 1.2442581,1.2442581 0 0 1 1.24425,-1.24406 1.2442581,1.2442581 0 0 1 1.24426,1.24406 h 1.80982 a 3.0540878,3.0540878 0 0 0 -3.05408,-3.05438 z m 22.62287,0 c -1.18692,0 -2.14917,0.96282 -2.14917,2.14969 v 0.28219 c 0,1.18687 0.96223,2.14969 2.14917,2.14969 h 1.80983 c 1.49931,0 2.71475,1.215 2.71475,2.71406 v 0.28312 c 0,1.49907 -1.21544,2.715 -2.71475,2.715 h -6.89994 c -1.49934,0 -2.71477,-1.21593 -2.71477,-2.715 0,-1.68656 -1.36736,-3.05437 -3.05409,-3.05437 h -3.05409 v 7.57875 h 1.80983 v -5.76844 h 1.24426 c 0.68717,0 1.24425,0.55688 1.24425,1.24406 0,2.49844 2.02573,4.52438 4.52461,4.52438 h 6.89994 c 2.49886,0 4.52456,-2.02594 4.52456,-4.52438 v -0.28312 c 0,-2.49844 -2.0257,-4.52438 -4.52456,-4.52438 h -1.80983 c -0.18743,0 -0.33936,-0.15187 -0.33936,-0.33937 v -0.28219 c 0,-0.1875 0.15193,-0.33937 0.33936,-0.33937 h 6.33439 v -1.81032 z m -36.19659,1.81032 a 3.0540875,3.0540878 0 0 1 3.05408,3.05343 3.0540875,3.0540878 0 0 1 -3.05408,3.05438 3.0540875,3.0540878 0 0 1 -3.05408,-3.05438 3.0540875,3.0540878 0 0 1 3.05408,-3.05343 z"
       id="path3336-4-5-6" />
    <g
       id="g6034"
       transform="translate(8.8253528,7.3504402e-4)"
       style="fill:#ffffff">
      <text
         xml:space="preserve"
         style="font-style:normal;font-weight:normal;font-size:32.0041px;line-height:1.25;font-family:sans-serif;fill:#ffffff;fill-opacity:1;stroke:none;stroke-width:0.937497"
         x="451.15778"
         y="817.75696"
         id="text5656"><tspan
           sodipodi:role="line"
           id="tspan5654"
           style="font-style:normal;font-variant:normal;font-weight:normal;font-stretch:normal;font-size:32.0041px;font-family:'JetBrains Mono';-inkscape-font-specification:'JetBrains Mono, @wght=634';font-variant-ligatures:normal;font-variant-caps:normal;font-variant-numeric:normal;font-variant-east-asian:normal;font-variation-settings:'wght' 634;fill:#ffffff;stroke-width:0.937497"
           x="451.15778"
           y="817.75696">PicPuzzle</tspan></text>
    </g>
    <path
       id="rect17451-7"
       style="opacity:1;fill:#ffffff;fill-opacity:1;stroke:none;stroke-width:0.3125;stroke-linecap:square;stroke-linejoin:miter;stroke-miterlimit:4;stroke-dashoffset:0;stroke-opacity:1"
       d="m 436.87038,928.38151 -4.12679,15.17096 h 4.18584 l 1.76883,-5.77065 1.47493,5.77065 h 3.89196 l 1.47356,-5.77065 1.7702,5.77065 h 10.43716 c 6.72271,0 6.72251,-9.57883 0.059,-9.57883 h -3.24373 c -1.12037,0 -1.12037,-1.48731 0,-1.48731 h 9.78895 l 2.15747,3.18471 -5.34218,7.88143 h 4.95354 l 2.86472,-4.2243 2.85511,4.2243 h 4.95353 l -5.33668,-7.88554 4.92469,-7.28542 h -4.95354 l -2.44311,3.62829 -2.45136,-3.62829 h -11.97114 c -6.72241,0 -6.72241,9.57884 0,9.57884 h 3.18471 c 1.12036,0 1.12036,1.4873 0,1.4873 h -7.37056 l -3.12565,-11.06614 h -3.47997 l -1.65072,6.24719 -1.65072,-6.24719 h -3.59669 z m 42.45862,0 c -0.76836,0 -1.37008,0.21912 -1.80315,0.65918 -0.4261,0.43308 -0.63859,1.04142 -0.63859,1.82376 0,0.0978 0.004,0.18409 0.0109,0.26094 h 1.40352 v -0.24033 c 0,-0.41214 0.0903,-0.73356 0.27191,-0.96407 0.1886,-0.23051 0.45026,-0.34608 0.78554,-0.34608 0.32831,0 0.58332,0.10893 0.76493,0.32548 0.1886,0.20955 0.28291,0.49909 0.28291,0.86928 0,0.41212 -0.11157,0.75744 -0.33509,1.03685 -0.22352,0.27242 -0.74419,0.69616 -1.56146,1.26894 -0.62866,0.44007 -1.06428,0.86244 -1.30876,1.26756 -0.23747,0.39816 -0.37429,0.93872 -0.40924,1.62326 h 5.05102 v -1.30877 h -3.1435 c 0.11176,-0.23749 0.30037,-0.46862 0.5658,-0.69214 0.26545,-0.2305 0.54172,-0.44038 0.82811,-0.62896 0.28639,-0.19561 0.5653,-0.40409 0.83772,-0.62762 0.27242,-0.2305 0.49554,-0.51341 0.67018,-0.8487 0.18161,-0.33528 0.27329,-0.70988 0.27329,-1.12199 0,-0.71947 -0.23114,-1.29191 -0.69215,-1.71802 -0.45404,-0.4261 -1.07164,-0.6386 -1.85397,-0.6386 z" />
  </g>
</svg>
